<?xml version="1.0" standalone="no"?>
<!DOCTYPE svg PUBLIC "-//W3C//DTD SVG 20010904//EN"
 "http://www.w3.org/TR/2001/REC-SVG-20010904/DTD/svg10.dtd">
<svg version="1.0" xmlns="http://www.w3.org/2000/svg"
 width="5304.000000pt" height="3240.000000pt" viewBox="0 0 5304.000000 3240.000000"
 preserveAspectRatio="xMidYMid meet">

<g transform="translate(0.000000,3240.000000) scale(0.100000,-0.100000)"
fill="#000000" stroke="none">
<path d="M12805 23965 c-88 -25 -194 -86 -259 -150 -111 -109 -144 -190 -211
-525 -31 -156 -37 -198 -32 -270 8 -146 65 -253 161 -302 177 -91 539 59 638
264 26 53 120 434 149 602 32 190 -42 336 -193 381 -63 18 -185 18 -253 0z"/>
<path d="M14785 22734 c-301 -44 -607 -180 -743 -329 -197 -215 -148 -499 123
-728 39 -33 216 -157 395 -277 179 -119 354 -240 390 -269 116 -93 184 -190
215 -308 15 -58 19 -169 7 -210 -7 -21 -11 -20 -77 34 -390 314 -782 381
-1160 198 -133 -65 -239 -139 -341 -240 -133 -130 -214 -261 -275 -444 -51
-151 -62 -227 -65 -466 l-3 -220 -33 -17 c-47 -24 -119 -38 -193 -38 -272 0
-391 149 -356 443 7 56 37 248 66 427 94 568 194 1209 220 1409 40 307 32 416
-33 484 -49 52 -78 62 -182 61 -82 0 -109 -5 -197 -36 -221 -76 -341 -186
-409 -372 -13 -38 -41 -182 -69 -362 -87 -561 -304 -1849 -321 -1907 -37 -125
-122 -175 -279 -164 -202 15 -295 93 -295 247 0 86 34 317 154 1060 62 382 89
603 81 664 -15 119 -60 197 -138 239 -36 19 -58 22 -147 22 -89 0 -118 -4
-190 -28 -232 -78 -362 -180 -439 -347 -37 -79 -117 -466 -132 -633 -16 -185
-59 -308 -154 -442 -114 -160 -390 -370 -565 -431 -85 -30 -192 -34 -258 -10
-148 53 -252 207 -298 441 -25 124 -25 386 0 510 123 622 608 1123 1226 1267
123 28 383 36 518 14 186 -29 262 -16 330 58 98 107 90 269 -19 361 -183 153
-800 269 -1204 226 -601 -65 -1107 -367 -1425 -851 -239 -364 -355 -803 -336
-1280 6 -156 24 -324 77 -699 l24 -163 -30 -24 c-49 -40 -225 -122 -309 -145
-55 -15 -107 -21 -175 -21 -151 1 -234 40 -286 133 -30 53 -30 56 -29 199 1
139 9 190 172 1165 93 561 173 1052 177 1090 8 93 -9 196 -46 272 -42 88 -116
152 -253 218 -190 93 -377 135 -598 135 -209 0 -351 -31 -678 -149 -136 -49
-193 -43 -370 39 -196 92 -371 127 -570 117 -147 -8 -244 -29 -520 -111 -186
-56 -225 -65 -239 -54 -9 7 -50 47 -91 89 -105 106 -180 142 -305 147 -195 9
-308 -60 -359 -217 -9 -25 -54 -293 -100 -596 -122 -788 -290 -1861 -336
-2135 -63 -380 -73 -459 -67 -538 9 -121 58 -193 154 -228 51 -18 205 -17 273
1 196 52 370 211 437 399 14 41 82 459 279 1711 110 703 120 758 159 842 69
152 244 245 460 247 79 1 97 -2 148 -27 91 -45 137 -126 137 -242 0 -59 -96
-694 -304 -2020 -87 -555 -94 -696 -40 -801 22 -44 41 -66 78 -89 47 -28 55
-30 155 -30 90 0 118 4 187 28 174 60 289 156 359 302 54 113 62 147 141 670
75 494 309 1929 325 1990 6 22 21 57 34 77 46 70 209 127 366 128 220 0 332
-122 291 -316 -6 -27 -69 -411 -141 -854 -72 -443 -149 -920 -172 -1060 -75
-460 -54 -601 111 -752 184 -169 498 -244 909 -218 336 21 618 101 847 238
l80 49 50 -40 c371 -299 708 -343 1105 -143 138 70 340 211 490 343 15 12 20
7 54 -53 98 -179 222 -288 405 -354 218 -80 523 -82 933 -5 73 14 209 39 303
57 l170 31 87 -37 c327 -140 704 -138 1132 7 196 66 227 67 350 5 182 -91 306
-120 515 -120 199 1 437 41 895 153 207 50 223 50 328 -5 205 -108 365 -141
650 -133 464 12 787 116 988 318 74 73 89 107 89 197 0 108 -46 162 -139 162
-64 0 -106 -18 -301 -129 -180 -103 -215 -115 -335 -115 -93 -1 -105 1 -168
31 -93 44 -124 68 -158 121 -23 37 -29 57 -29 103 0 70 16 117 80 230 115 203
160 357 160 545 0 251 -95 462 -307 680 -171 177 -299 270 -731 535 -199 122
-453 296 -459 315 -6 17 169 102 243 120 93 22 169 14 249 -25 75 -37 159
-123 206 -211 41 -78 123 -153 190 -175 72 -24 197 -17 259 14 106 54 142 115
148 251 11 260 -130 493 -373 617 -212 108 -392 153 -635 158 -91 2 -178 1
-195 -1z m-320 -2515 c86 -35 185 -104 346 -242 l44 -38 -60 -55 c-185 -173
-404 -293 -645 -354 -146 -37 -213 -18 -259 73 -19 39 -23 63 -23 135 1 149
49 262 158 368 139 136 288 174 439 113z"/>
<path d="M2896 11602 c-9 -16 -36 -166 -47 -264 -24 -219 17 -728 87 -1066
142 -692 507 -1254 1056 -1625 397 -269 867 -432 1428 -494 159 -17 874 -18
20800 -18 16967 0 20661 2 20780 13 564 51 1007 156 1410 334 771 340 1246
895 1439 1681 103 417 114 839 35 1277 -14 74 -27 143 -30 153 -5 16 -729 17
-15157 15 -14771 -3 -15153 -3 -15202 -22 -87 -32 -149 -81 -317 -246 -677
-670 -1391 -1070 -2201 -1234 -1356 -274 -2851 -70 -3857 527 -335 199 -552
382 -935 788 -98 103 -164 146 -270 174 -53 13 -548 15 -4537 15 -2462 0
-4479 -3 -4482 -8z"/>
</g>
</svg>
